<svg width="720" height="560" viewBox="0 0 720 560" xmlns="http://www.w3.org/2000/svg" role="img" aria-labelledby="title desc">
  <title id="title">Ilustracao de rastreamento logistico</title>
  <desc id="desc">Caminhao de entrega, celular com checklist, rota e marcador de localizacao.</desc>
  <defs>
    <linearGradient id="blob" x1="0" y1="0" x2="1" y2="1">
      <stop offset="0%" stop-color="#14B8A6"/>
      <stop offset="100%" stop-color="#DDF7F4"/>
    </linearGradient>
    <linearGradient id="truck" x1="0" y1="0" x2="1" y2="1">
      <stop offset="0%" stop-color="#F59E0B"/>
      <stop offset="100%" stop-color="#F97316"/>
    </linearGradient>
    <linearGradient id="blue" x1="0" y1="0" x2="1" y2="1">
      <stop offset="0%" stop-color="#2563EB"/>
      <stop offset="100%" stop-color="#12355B"/>
    </linearGradient>
    <filter id="soft-shadow" x="-20%" y="-20%" width="140%" height="150%">
      <feDropShadow dx="0" dy="18" stdDeviation="18" flood-color="#12355B" flood-opacity="0.16"/>
    </filter>
  </defs>

  <rect width="720" height="560" fill="none"/>
  <path d="M112 122C179 54 302 77 387 92c81 14 111-38 171-15 65 24 80 101 87 149 11 75 46 118 9 179-36 59-112 66-192 65-78 0-135 24-211 23-90-1-159-33-185-99-24-60 10-106 8-158-1-42-8-68 38-114Z" fill="url(#blob)" opacity=".9"/>
  <path d="M92 426H640" stroke="#12355B" stroke-width="3" stroke-linecap="round" opacity=".55"/>

  <path d="M202 168c90-84 190-28 250 36 54 58 62 139 131 154" fill="none" stroke="#7C3AED" stroke-width="2.4" stroke-linecap="round" stroke-dasharray="8 8" opacity=".78"/>
  <path d="M404 335l68 24-53 43 9-38-42-10Z" fill="#7C3AED" opacity=".9"/>
  <path d="M426 362l46-3-53 43Z" fill="#5B21B6" opacity=".72"/>

  <g filter="url(#soft-shadow)">
    <path d="M510 88c-34 0-61 26-61 59 0 56 61 121 61 121s61-65 61-121c0-33-27-59-61-59Z" fill="#7C3AED"/>
    <circle cx="510" cy="148" r="25" fill="#14B8A6"/>
  </g>

  <g filter="url(#soft-shadow)" transform="translate(98 174) rotate(-5)">
    <rect x="0" y="0" width="154" height="250" rx="20" fill="#6D28D9"/>
    <rect x="18" y="28" width="118" height="178" rx="8" fill="#DDF7F4"/>
    <rect x="38" y="48" width="76" height="48" rx="4" fill="#F59E0B"/>
    <path d="M38 48h76L75 96Z" fill="#F97316" opacity=".55"/>
    <circle cx="77" cy="226" r="13" fill="#8B5CF6"/>
    <g fill="none" stroke-linecap="round" stroke-width="3">
      <path d="M40 122l7 7 13-19" stroke="#22C55E"/>
      <path d="M40 154l7 7 13-19" stroke="#22C55E"/>
      <circle cx="48" cy="188" r="8" stroke="#94A3B8"/>
      <path d="M74 122h40M74 140h50M74 154h44M74 172h48M74 188h38" stroke="#94A3B8"/>
    </g>
    <path d="M48 208c-11 0-19 8-19 18 0 16 19 36 19 36s19-20 19-36c0-10-8-18-19-18Z" fill="#F97316"/>
    <circle cx="48" cy="226" r="7" fill="#DDF7F4"/>
  </g>

  <g filter="url(#soft-shadow)">
    <rect x="238" y="266" width="286" height="118" rx="32" fill="url(#truck)"/>
    <path d="M524 300h84l44 84H524Z" fill="#F97316"/>
    <path d="M546 317h53l26 48h-79Z" fill="#CFFAFE"/>
    <rect x="260" y="296" width="92" height="26" rx="13" fill="#FFE8B5" opacity=".85"/>
    <rect x="270" y="338" width="178" height="12" rx="6" fill="#FB923C" opacity=".62"/>
    <path d="M555 389h82l13 37H541Z" fill="#7C3AED"/>
    <rect x="592" y="360" width="32" height="18" rx="6" fill="#14B8A6"/>
    <g>
      <circle cx="302" cy="426" r="43" fill="#12355B"/>
      <circle cx="302" cy="426" r="23" fill="#7C3AED"/>
      <circle cx="302" cy="426" r="11" fill="#F5F7FA"/>
      <circle cx="546" cy="426" r="43" fill="#12355B"/>
      <circle cx="546" cy="426" r="23" fill="#7C3AED"/>
      <circle cx="546" cy="426" r="11" fill="#F5F7FA"/>
    </g>
  </g>

  <g filter="url(#soft-shadow)">
    <rect x="430" y="246" width="210" height="96" rx="22" fill="#FFFFFF" opacity=".95"/>
    <rect x="454" y="266" width="162" height="30" rx="15" fill="#DCFCE7"/>
    <text x="535" y="286" text-anchor="middle" font-family="Arial, sans-serif" font-size="15" font-weight="800" fill="#166534">verificado</text>
    <text x="454" y="319" font-family="Courier New, monospace" font-size="17" font-weight="800" fill="#12355B">CAF-ORG-0001</text>
  </g>
</svg>
